<?xml version="1.0" encoding="UTF-8"?>
<svg width="136px" height="211px" viewBox="0 0 136 211" version="1.1" xmlns="http://www.w3.org/2000/svg" xmlns:xlink="http://www.w3.org/1999/xlink">
    <!-- Generator: Sketch 50.2 (55047) - http://www.bohemiancoding.com/sketch -->
    <title>Group</title>
    <desc>Created with Sketch.</desc>
    <defs>
        <linearGradient x1="0%" y1="50%" x2="100%" y2="50%" id="linearGradient-1">
            <stop stop-color="#2161FF" offset="0%"></stop>
            <stop stop-color="#5CAEFF" offset="100%"></stop>
        </linearGradient>
    </defs>
    <g id="厂商首页" stroke="none" stroke-width="1" fill="none" fill-rule="evenodd" opacity="0.814564732">
        <g id="厂商首页-v2" transform="translate(0.000000, -2879.000000)" fill="url(#linearGradient-1)">
            <g id="Group-7" transform="translate(-1.000000, 2879.000000)">
                <g id="Group" transform="translate(-45.000000, -36.000000)">
                    <polygon id="Fill-2" points="118.278697 66.4353397 103 90 151.717262 86.5727056 167 63"></polygon>
                    <path d="M109.861371,53.8212106 C112.12958,56.255815 114.842457,60.5020274 118,66.5967357 L102.57536,90.6107883 C99.4137368,84.5160799 96.7008604,80.2657689 94.4367305,77.8311645 C92.1358849,75.4006587 88.5459131,72.8348972 83.6382584,70.1338798 L99.0669782,46.1198273 C103.974633,48.8208446 107.564605,51.3866062 109.861371,53.8212106 Z M68.1222371,49.5905731 C70.0804035,47.164166 73.8253968,45.3238674 79.3449785,44 L82.9512684,75.9818488 L67.5266281,100 L63.9244177,68.0099539 C58.4007566,69.3338213 54.6557632,71.1823172 52.6975968,73.6046256 C52.444667,73.9202225 52.2162142,74.239918 52,74.5719095 L67.4246403,50.557857 C67.636775,50.2258655 67.8693072,49.9020713 68.1222371,49.5905731 Z" id="Combined-Shape"></path>
                    <path d="M132.8957,148.903609 C133.282598,152.331017 132.594326,155.413657 130.810521,158.163697 L115.411961,181.932472 C117.195767,179.178377 117.884039,176.091681 117.49714,172.664272 C117.053225,168.790692 115.126878,165.087468 111.779188,161.623554 C108.439643,158.155584 102.245195,154.663278 93.2447148,151.207476 L108.643274,127.442757 C117.643754,130.902614 123.838203,134.394921 127.18182,137.858834 C130.525437,141.326804 132.455857,145.030028 132.8957,148.903609 Z M48.6353204,105.839535 C56.5932112,109.782069 69.8495748,114.75891 88.4329195,120.741665 L93.3730022,164.23528 L77.9744428,188 L73.0343601,144.502329 C54.4510154,138.52363 41.1946518,133.546789 33.2367611,129.600199 C25.3073786,125.661721 18.1599383,119.7682 11.7414962,111.911525 C5.36378031,104.062961 1.56810263,94.7988172 0.354463195,84.1028681 C-0.851031005,73.5083216 1.01829953,64.3901973 5.9624548,56.7606636 L21.3610142,33 C16.4168589,40.6295337 14.5475284,49.7436018 15.7530226,60.3340922 C16.966662,71.0381536 20.7623397,80.2941854 27.1441282,88.1508609 C33.5584977,95.9994243 40.7100106,101.897001 48.6353204,105.839535 Z" id="Combined-Shape"></path>
                    <path d="M176,176 L160.540424,199.63654 C157.412528,204.417916 153.552745,208.481076 148.940631,211.813917 C142.697105,216.25636 135.92613,219.343071 128.541842,221.009491 C121.157553,222.671877 111.998746,223.297289 101,222.869588 L116.459576,199.233048 C127.458322,199.656714 136.61304,199.035337 144.001417,197.368917 C151.381617,195.706531 158.16077,192.615785 164.400207,188.173342 C169.012321,184.840502 172.872104,180.781376 176,176" id="Fill-12"></path>
                    <path d="M97,198.300535 L81.5699711,222 C68.2742731,219.960988 57.374086,217.185667 48.8326815,213.738766 C40.3320864,210.304002 32.8109165,205.837596 26.2814147,200.412368 C19.7437511,194.958821 14.5201496,189.222078 10.639177,183.214275 C6.75412345,177.174108 3.53018194,170.02543 1,161.699465 L16.4300289,138 C18.9602108,146.317873 22.1841524,153.474642 26.0692059,159.510764 C29.9501785,165.518567 35.1778609,171.251264 41.7114436,176.708857 C48.2409454,182.134085 55.7621153,186.596446 64.2667914,190.039301 C72.8041149,193.482156 83.704302,196.253432 97,198.300535" id="Fill-15"></path>
                    <path d="M82.652911,75.8929732 L79.0716727,44.1137833 C73.5882818,45.4331653 69.8650918,47.2615682 67.91427,49.672291 C65.9999501,52.0545086 65.2009648,54.9905409 65.5943738,58.4681714 C66.0080616,62.1331215 67.5005822,65.3745663 70.0719356,68.2291553 C72.6189545,71.1081772 76.8328918,73.6451371 82.652911,75.8929732 M128.065284,160.911672 C131.2085,157.584712 132.514456,153.699865 132.011541,149.240842 C131.573519,145.351923 129.651087,141.634035 126.321306,138.152332 C122.987469,134.674701 116.82271,131.164494 107.859475,127.69908 L112.328926,167.382345 C119.702302,166.400953 124.95857,164.242705 128.065284,160.911672 M159.323046,107.326029 C172.475884,118.22722 179.930376,131.343669 181.65813,146.675377 C182.672071,155.666721 181.426952,163.754045 177.971442,170.945491 C174.475375,178.104361 169.669296,183.956064 163.516705,188.472097 C157.327611,192.959625 150.607212,196.078905 143.282505,197.756638 C135.957798,199.438443 126.87289,200.065556 115.966945,199.637979 L118.595079,223 L99.0625263,221.49737 L96.4262806,198.135349 C83.216662,196.074833 72.3837203,193.281326 63.8950093,189.819985 C55.4428002,186.354571 47.9680298,181.858899 41.4828655,176.402195 C34.9855339,170.908842 29.7941579,165.138581 25.9371277,159.091414 C22.071986,153.011669 18.8679336,145.812078 16.3533608,137.435631 L69.6947497,135.786403 C72.201211,144.06919 75.0321332,150.132647 78.1672377,153.976772 C81.2982864,157.820898 86.104365,161.347394 92.6544215,164.633633 L87.7347815,120.963716 C69.2242813,114.961342 56.02683,109.960721 48.0978142,106.006647 C40.2053003,102.048501 33.0833813,96.1275702 26.6955553,88.2438552 C20.3442311,80.3601402 16.5642605,71.0633834 15.3515875,60.3210073 C13.7008921,45.6571345 17.8621045,33.8152734 27.8473918,24.8198568 C37.8002331,15.8203681 53.686655,11.6056755 75.4823229,12.2409335 L74.1033636,0 L93.6399718,1.50262956 L95.018931,13.7435631 C115.099011,16.4230488 130.819147,21.9652679 142.252342,30.3620759 C153.649034,38.7303787 161.707834,49.6519302 166.396296,63.0900807 L117.504079,66.5677112 C114.360863,60.5123991 111.66378,56.2936343 109.412832,53.8747672 C107.125382,51.4559001 103.556311,48.9067236 98.6772288,46.2231657 L102.708657,81.989007 C130.510909,90.7604543 149.394539,99.197984 159.323046,107.326029" id="Fill-18"></path>
                    <polygon id="Fill-21" points="100 221.25276 84.6404875 245 82 221.743187 97.3635748 198"></polygon>
                    <polygon id="Fill-23" points="119 223.481214 103.60863 247 84 245.518786 99.3954408 222"></polygon>
                </g>
            </g>
        </g>
    </g>
</svg>