<?xml version="1.0" encoding="UTF-8"?>
<svg width="12px" height="14px" viewBox="0 0 12 14" version="1.1" xmlns="http://www.w3.org/2000/svg" xmlns:xlink="http://www.w3.org/1999/xlink">
    <!-- Generator: Sketch 50.2 (55047) - http://www.bohemiancoding.com/sketch -->
    <title>Q</title>
    <desc>Created with Sketch.</desc>
    <defs>
        <path d="M5.29101562,9.4140625 L6.44238281,8.08691406 L7.93652344,9.2734375 C8.05957093,8.83984158 8.12109375,7.94629583 8.12109375,6.59277344 C8.12109375,5.33300151 8.07714888,4.47461166 7.98925781,4.01757812 C7.89550734,3.58398221 7.72265751,3.22949356 7.47070312,2.95410156 C7.27734278,2.69042837 7.01953286,2.470704 6.69726562,2.29492188 C6.35742018,2.12499915 5.956057,2.03417975 5.49316406,2.02246094 C5.03613053,2.03417975 4.64355633,2.12499915 4.31542969,2.29492188 C3.98144364,2.470704 3.71191509,2.69042837 3.50683594,2.95410156 C3.25488155,3.22949356 3.08789104,3.58398221 3.00585938,4.01757812 C2.91210891,4.47461166 2.86523438,5.33300151 2.86523438,6.59277344 C2.86523438,7.85254536 2.91210891,8.7050759 3.00585938,9.15039062 C3.08789104,9.59570535 3.25488155,9.95605331 3.50683594,10.2314453 C3.71191509,10.4951185 3.98144364,10.7089836 4.31542969,10.8730469 C4.64355633,11.0664072 5.03613053,11.1630859 5.49316406,11.1630859 C6.0908233,11.1630859 6.56835759,11.0136734 6.92578125,10.7148438 L5.29101562,9.4140625 Z M8.51660156,11.9892578 C7.76073841,12.7099645 6.75293599,13.0820311 5.49316406,13.1054688 C4.48534652,13.0820311 3.64453462,12.8359398 2.97070312,12.3671875 C2.28515282,11.9160134 1.78711093,11.3945342 1.4765625,10.8027344 C1.38281203,10.609374 1.29785194,10.4248056 1.22167969,10.2490234 C1.15136684,10.0673819 1.09277367,9.83886856 1.04589844,9.56347656 C0.958007373,9.04784898 0.9140625,8.05762451 0.9140625,6.59277344 C0.9140625,5.10448475 0.958007373,4.10840096 1.04589844,3.60449219 C1.13964891,3.10058342 1.28320216,2.69336093 1.4765625,2.3828125 C1.78711093,1.79101267 2.28515282,1.26367419 2.97070312,0.80078125 C3.64453462,0.332028906 4.48534652,0.0917969336 5.49316406,0.080078125 C6.51270041,0.0917969336 7.36230129,0.332028906 8.04199219,0.80078125 C8.71582368,1.26367419 9.20214694,1.79101267 9.50097656,2.3828125 C9.71777452,2.69336093 9.86718709,3.10058342 9.94921875,3.60449219 C10.025391,4.10840096 10.0634766,5.10448475 10.0634766,6.59277344 C10.0634766,7.92285821 10.03418,8.85155986 9.97558594,9.37890625 C9.89941368,9.90625264 9.77343838,10.3164048 9.59765625,10.609375 L11.2851562,11.9541016 L10.1337891,13.2900391 L8.51660156,11.9892578 Z" id="path-1"></path>
    </defs>
    <g id="Page-1" stroke="none" stroke-width="1" fill="none" fill-rule="evenodd">
        <g id="Q">
            <use fill="#000000" xlink:href="#path-1"></use>
            <use fill="#4DC28E" xlink:href="#path-1"></use>
        </g>
    </g>
</svg>