<?xml version="1.0" encoding="utf-8"?>
<!-- Generator: Adobe Illustrator 22.1.0, SVG Export Plug-In . SVG Version: 6.00 Build 0)  -->
<svg version="1.1" id="图层_1" xmlns="http://www.w3.org/2000/svg" xmlns:xlink="http://www.w3.org/1999/xlink" x="0px" y="0px"
	 viewBox="0 0 50 19" style="enable-background:new 0 0 50 19;" xml:space="preserve">
<style type="text/css">
	.st0{fill:#E2F1FF;}
	.st1{fill:#339AFF;}
</style>
<title>titile</title>
<desc>Created with Sketch.</desc>
<polygon id="Line-3" class="st0" points="0.5,10.5 0.5,9.5 21.5,9.5 21.5,10.5 "/>
<polygon id="Line-3-Copy" class="st0" points="36.5,10.5 36.5,9.5 50,9.5 50,10.5 "/>
<path id="Polygon-2-Copy" class="st1" d="M29.4,1.6l-6.9,4v7.9l6.9,4l6.9-4V5.5L29.4,1.6z M37.2,5V14l-7.9,4.5L21.5,14V5l7.9-4.5
	L37.2,5z"/>
<path id="Polygon-2-Copy-2" class="st1" d="M26,7.5v3.9l3.4,2l3.4-2V7.5l-3.4-2L26,7.5z M33.8,7V12l-4.4,2.5L25,12V7l4.4-2.5L33.8,7
	z"/>
</svg>
