<?xml version="1.0" encoding="UTF-8"?>
<svg width="105px" height="93px" viewBox="0 0 105 93" version="1.1" xmlns="http://www.w3.org/2000/svg" xmlns:xlink="http://www.w3.org/1999/xlink">
    <!-- Generator: Sketch 50.2 (55047) - http://www.bohemiancoding.com/sketch -->
    <title>项目3</title>
    <desc>Created with Sketch.</desc>
    <defs>
        <linearGradient x1="-27.8971354%" y1="50%" x2="100%" y2="50%" id="linearGradient-1">
            <stop stop-color="#2161FF" offset="0%"></stop>
            <stop stop-color="#5CAEFF" offset="100%"></stop>
        </linearGradient>
        <linearGradient x1="109.742647%" y1="50%" x2="-98.839614%" y2="50%" id="linearGradient-2">
            <stop stop-color="#DEFFF7" offset="0%"></stop>
            <stop stop-color="#69C9B3" offset="100%"></stop>
        </linearGradient>
    </defs>
    <g id="厂商首页" stroke="none" stroke-width="1" fill="none" fill-rule="evenodd">
        <g id="厂商首页-v2" transform="translate(-1061.000000, -4167.000000)">
            <g id="项目3" transform="translate(1062.000000, 4167.000000)">
                <g>
                    <polyline id="Polygon" stroke="#339AFF" stroke-width="1.188" points="0 26.3333333 0 14.7777778 10 9"></polyline>
                    <polyline id="Polygon-Copy-10" stroke="#E4F1FF" stroke-width="1.188" transform="translate(98.000000, 17.666667) scale(-1, 1) translate(-98.000000, -17.666667) " points="93 26.3333333 93 14.7777778 103 9"></polyline>
                    <polyline id="Polygon-Copy-8" stroke="#339AFF" stroke-width="1.188" transform="translate(96.000000, 76.666667) scale(-1, -1) translate(-96.000000, -76.666667) " points="91 85.3333333 91 73.7777778 101 68"></polyline>
                    <polyline id="Polygon-Copy-9" stroke="#E4F1FF" stroke-width="1.188" transform="translate(5.000000, 70.666667) scale(1, -1) translate(-5.000000, -70.666667) " points="0 79.3333333 0 67.7777778 10 62"></polyline>
                    <g id="Group-32" transform="translate(10.000000, 0.000000)">
                        <polygon id="Fill-1" fill="url(#linearGradient-1)" points="0 24.6575871 40.6319505 48.3142857 81 24.6571429 40.3689306 1"></polygon>
                        <polygon id="Fill-1-Copy-13" stroke="#339AFF" stroke-width="0.5" opacity="0.973102679" points="10.1127717 24.6574762 40.5990027 42.4071429 70.8872283 24.6571429 40.4016584 6.90714286"></polygon>
                        <g id="Group-32-Copy" transform="translate(25.000000, 0.000000)" fill="url(#linearGradient-2)">
                            <polygon id="Fill-1" points="0 9.50017841 16.0521286 19 32 9.5 15.9482195 0"></polygon>
                            <polygon id="Fill-2" points="16.0508274 18.5599072 16 37 31.9493467 27.4402724 32 9"></polygon>
                            <polygon id="Fill-3" points="0 27.4403906 15.9496741 37 16 18.5597889 0.0504988272 9"></polygon>
                        </g>
                        <polygon id="Fill-2" fill="url(#linearGradient-1)" points="40.6286568 47.9911203 40.5 93 80.8717839 69.6664608 81 24.6571429"></polygon>
                        <polygon id="Fill-3" fill="url(#linearGradient-1)" points="0 69.6667494 40.3726126 93 40.5 47.9908317 0.127825156 24.6571429"></polygon>
                    </g>
                </g>
            </g>
        </g>
    </g>
</svg>