<?xml version="1.0" encoding="UTF-8"?>
<svg width="192px" height="138px" viewBox="0 0 192 138" version="1.1" xmlns="http://www.w3.org/2000/svg" xmlns:xlink="http://www.w3.org/1999/xlink">
    <!-- Generator: Sketch 50.2 (55047) - http://www.bohemiancoding.com/sketch -->
    <title>Group</title>
    <desc>Created with Sketch.</desc>
    <defs>
        <linearGradient x1="0%" y1="50%" x2="70.2148437%" y2="50%" id="linearGradient-1">
            <stop stop-color="#529FB3" offset="0%"></stop>
            <stop stop-color="#73C7F7" offset="100%"></stop>
        </linearGradient>
        <linearGradient x1="0%" y1="64.6972656%" x2="88.3304196%" y2="64.6972656%" id="linearGradient-2">
            <stop stop-color="#7DC2EA" offset="0%"></stop>
            <stop stop-color="#9CD7FA" offset="100%"></stop>
        </linearGradient>
        <linearGradient x1="10.5954861%" y1="32.5296336%" x2="100%" y2="72.4474677%" id="linearGradient-3">
            <stop stop-color="#77B4D4" offset="0%"></stop>
            <stop stop-color="#B5E3FF" offset="100%"></stop>
        </linearGradient>
        <linearGradient x1="50%" y1="0%" x2="50%" y2="90.300359%" id="linearGradient-4">
            <stop stop-color="#7FB7D5" offset="0%"></stop>
            <stop stop-color="#42A3DC" offset="100%"></stop>
        </linearGradient>
    </defs>
    <g id="厂商首页" stroke="none" stroke-width="1" fill="none" fill-rule="evenodd" opacity="0.870982143">
        <g id="厂商首页-v2" transform="translate(-1344.000000, -3321.000000)">
            <g id="Group-28" transform="translate(1151.000000, 2879.000000)">
                <g id="Group" transform="translate(305.500000, 521.500000) scale(-1, 1) translate(-305.500000, -521.500000) translate(193.000000, 442.000000)">
                    <path d="M132.996608,130.594746 C132.983038,130.154801 132.955899,129.721521 132.911798,129.291574 C132.860912,128.798302 132.78628,128.311696 132.691293,127.831755 C132.657369,127.665109 132.609876,127.501796 132.569167,127.33515 C132.54542,127.231829 132.518281,127.128509 132.494534,127.025188 C132.440256,126.815214 132.396155,126.601907 132.338485,126.395266 C132.192612,125.898661 132.0196,125.412055 131.826234,124.935447 C131.731248,124.695477 131.612514,124.468838 131.50735,124.235534 C131.446287,124.112216 131.388617,123.985565 131.330946,123.862247 C131.256314,123.712265 131.195251,123.552285 131.117226,123.405637 C130.811911,122.829041 130.479457,122.275777 130.109687,121.739176 C130.035055,121.632523 129.940068,121.542534 129.862043,121.432548 C129.668677,121.162581 129.444779,120.919278 129.234452,120.65931 C128.956276,120.319352 128.705239,119.956064 128.403317,119.632771 C128.264229,119.489455 128.087825,119.386135 127.945345,119.246152 C127.422917,118.732882 126.859781,118.276272 126.276291,117.829661 C125.899736,117.54303 125.546928,117.2464 125.150019,116.989765 C124.474934,116.553152 123.748963,116.19653 123.016208,115.846573 C122.707501,115.703257 122.439502,115.499949 122.120618,115.369965 C122.039201,115.336636 121.947606,115.319972 121.866189,115.286642 C121.601583,115.183322 121.320015,115.116663 121.045232,115.023342 C120.522804,114.846697 120.013946,114.650055 119.474557,114.520071 C119.189597,114.450079 118.894459,114.41675 118.606106,114.36009 C118.41274,114.323428 118.226159,114.286766 118.036185,114.25677 C117.836035,114.226774 117.649453,114.17678 117.452695,114.150116 C116.872597,114.076792 116.285714,114.030131 115.688654,114.010134 C115.352808,114.000135 115.01357,113.996802 114.677723,114.003468 C114.457218,114.006801 114.24689,114.0168 114.029778,114.026798 C113.500565,114.056795 112.974746,114.106788 112.455711,114.17678 C112.058801,114.233439 111.665285,114.310097 111.27516,114.39342 C111.210705,114.403418 111.153034,114.413417 111.088579,114.423416 C111.037693,114.436748 110.983415,114.440081 110.929137,114.453412 C110.413494,114.566732 109.904636,114.703381 109.405956,114.863361 C108.897098,115.023342 108.395025,115.206652 107.906521,115.40996 C107.896344,115.413293 107.882774,115.416626 107.869205,115.423292 C107.859028,115.426625 107.852243,115.429958 107.842066,115.433291 C107.261968,115.676594 106.695439,115.946561 106.149265,116.243191 C105.85752,116.403171 105.592914,116.59648 105.314738,116.769792 C105.094233,116.903109 104.880513,117.033093 104.670185,117.173075 C104.52092,117.273063 104.361478,117.356386 104.212213,117.463039 C103.594798,117.906318 103.021485,118.39959 102.471919,118.916193 C102.35997,119.022846 102.251413,119.136166 102.139465,119.249485 C101.474557,119.909403 100.850358,120.612649 100.300792,121.369222 C100.266868,121.419216 100.226159,121.462544 100.188843,121.512538 C99.6324915,122.295774 99.1643423,123.139003 98.7504712,124.005562 C98.6724463,124.172208 98.591029,124.332189 98.5197889,124.498835 C98.1466265,125.362061 97.8413117,126.255284 97.6174142,127.181836 C97.580098,127.348482 97.5495665,127.518461 97.5156427,127.688439 C97.3120995,128.664985 97.1730117,129.661528 97.1594421,130.688068 L97,141.466733 C97.0135695,140.440193 97.1560498,139.440317 97.3562005,138.463771 C97.3901244,138.297125 97.4172635,138.123813 97.4545797,137.957167 C97.6818696,137.033948 97.9837919,136.137393 98.3569544,135.277499 C98.4315869,135.10752 98.5130041,134.94754 98.5876366,134.780894 C99.0015077,133.914335 99.469657,133.074439 100.026008,132.28787 C100.063325,132.237876 100.107426,132.191215 100.141349,132.141221 C100.694308,131.387981 101.311723,130.684735 101.980023,130.024817 C102.095364,129.911497 102.197135,129.798178 102.312476,129.691525 C102.990954,129.054937 103.730494,128.478342 104.514135,127.95174 C104.72107,127.808425 104.938183,127.678441 105.155296,127.545124 C105.966076,127.045186 106.807388,126.571911 107.70637,126.201957 C107.71994,126.195291 107.736902,126.188625 107.753864,126.181959 C108.761402,125.765344 109.826611,125.438718 110.925744,125.202081 C110.9902,125.185416 111.054655,125.17875 111.11911,125.168752 C112.214851,124.942113 113.347908,124.805463 114.514889,124.7788 C115.661515,124.758802 116.781003,124.85879 117.869959,125.032102 C118.066717,125.062098 118.253298,125.102093 118.446664,125.135422 C119.284583,125.298735 120.091971,125.53204 120.88579,125.802006 C121.157181,125.891995 121.438749,125.958654 121.706747,126.061974 C122.107049,126.221954 122.466642,126.441927 122.856766,126.625238 C123.589521,126.971862 124.315492,127.331817 124.990577,127.765097 C125.384093,128.021732 125.740294,128.321694 126.116849,128.604993 C126.696947,129.051604 127.266868,129.511547 127.785903,130.021484 C128.243875,130.471428 128.674708,130.94137 129.075009,131.437975 C129.285337,131.69461 129.509235,131.941246 129.699208,132.20788 C130.252167,132.977784 130.750848,133.784351 131.168112,134.637579 C131.229175,134.760897 131.286845,134.887548 131.344516,135.014199 C131.754994,135.907421 132.087448,136.837306 132.335092,137.803853 C132.358839,137.903841 132.382586,138.010494 132.406332,138.110482 C132.650584,139.167018 132.806634,140.250217 132.833773,141.370078 C132.840558,141.580052 132.840558,141.790026 132.837165,142 L132.996608,131.224668 C133,131.091351 133,130.954702 133,130.821385 C132.996608,130.744728 132.996608,130.671403 132.996608,130.594746" id="Combined-Shape" fill="url(#linearGradient-1)"></path>
                    <path d="M124.039032,67.0625462 C124.827218,67.1190711 125.608639,67.1955461 126.39006,67.268696 C127.320323,67.355146 128.24382,67.4415959 129.163934,67.5513208 C129.881082,67.6377708 130.591465,67.7375207 131.301848,67.8372706 C132.391101,67.9868955 133.470206,68.1531454 134.542545,68.3360203 C135.246162,68.4557202 135.946396,68.5820701 136.643247,68.71507 C137.705438,68.9212198 138.760864,69.1439947 139.806141,69.3800695 C140.428571,69.5197194 141.047619,69.6593693 141.663284,69.8089942 C143.74369,70.3177188 145.807182,70.8829684 147.830081,71.5246929 C148.171741,71.6310928 148.49987,71.7507928 148.834765,71.8605177 C150.610721,72.4423922 152.36638,73.0774668 154.101743,73.7590913 C154.527973,73.9253412 154.954202,74.088266 155.377049,74.2611659 C157.721311,75.2220902 160.02498,76.2794394 162.291439,77.4265636 C162.680458,77.6227385 163.066094,77.8189133 163.448348,78.0184132 C165.697892,79.1954623 167.913609,80.4589614 170.08535,81.8155604 C170.430393,82.0316852 170.76867,82.2577851 171.11033,82.4772349 C173.315899,83.8970089 175.48764,85.3965828 177.612022,87.0058816 C177.838668,87.1787815 178.065314,87.3649813 178.291959,87.5412062 C180.514442,89.2602299 182.706479,91.0590536 184.84101,92.9908772 L185,82.2411601 C182.868852,80.3126615 180.680198,78.5138378 178.461098,76.7981391 C178.231069,76.6185892 178.001041,76.4290643 177.767629,76.2528395 C175.64663,74.6435406 173.478272,73.1472917 171.276086,71.7308428 C170.931043,71.5080679 170.589383,71.2819681 170.24434,71.0658433 C168.075982,69.7059193 165.860265,68.4457452 163.610721,67.272021 C163.225085,67.0691962 162.839448,66.8696963 162.447047,66.6735215 C160.187354,65.5297223 157.883685,64.4723731 155.542805,63.5114488 C155.393963,63.4515988 155.251887,63.3717989 155.103044,63.3119489 C154.825657,63.198899 154.534738,63.1157741 154.253968,63.0060492 C152.521988,62.3277497 150.769711,61.6926751 149.00052,61.1108005 C148.662243,61.0010756 148.330731,60.8813757 147.992454,60.7716508 C145.966172,60.1365763 143.909446,59.5713267 141.82904,59.059277 C141.626073,59.0094021 141.433255,58.9429021 141.230289,58.8930272 C140.810825,58.7932772 140.381213,58.7234523 139.958366,58.6270274 C138.913089,58.3942775 137.864429,58.1715027 136.805621,57.9686778 C136.108769,57.8323529 135.405152,57.706003 134.701535,57.5829781 C133.629196,57.4001033 132.550091,57.2371784 131.457455,57.0875535 C131.017695,57.0243785 130.588082,56.9412536 130.141556,56.8847286 C129.874317,56.8514787 129.596929,56.8348537 129.322925,56.8016037 C128.406193,56.6918788 127.479313,56.6054288 126.552433,56.5189789 C125.771012,56.445829 124.986209,56.369354 124.201405,56.3128291 C123.257611,56.2463291 122.300286,56.1997791 121.346344,56.1565542 C120.757741,56.1266292 120.179287,56.0767542 119.590684,56.0568042 C119.411397,56.0534792 119.225345,56.0601292 119.046058,56.0534792 C117.09758,56.0002793 115.135571,55.9803293 113.149883,56.0235543 C111.739266,56.0501543 110.342181,56.1033542 108.951861,56.1798292 C108.779339,56.1864792 108.6102,56.2064291 108.441062,56.2164041 C107.720531,56.2563041 107.010148,56.3228041 106.296383,56.376004 C105.352589,56.449154 104.408795,56.5189789 103.47515,56.6120788 C102.751236,56.6852288 102.034088,56.7783287 101.31694,56.8647787 C100.674213,56.9412536 100.021337,57.0011036 99.385376,57.0875535 C99.2230029,57.1108285 99.070778,57.1507284 98.9084049,57.1740034 C96.3408795,57.5397532 93.8173302,57.9952778 91.3276086,58.5339274 C91.1111111,58.5838024 90.8743169,58.6070774 90.6578194,58.6569523 C90.424408,58.7068273 90.2079105,58.7833022 89.9812646,58.8365022 C87.5253708,59.4017518 85.1066875,60.0434763 82.7319802,60.7783008 C82.600052,60.8182008 82.4613583,60.8448007 82.3294301,60.8847007 C82.1129326,60.9545257 81.9099662,61.0476256 81.6900859,61.1174505 C79.1327088,61.9420499 76.6091595,62.8464493 74.1465001,63.8705485 C74.0923757,63.8904985 74.0382514,63.9071235 73.9875098,63.9270735 C73.4124382,64.1664733 72.8542805,64.4391231 72.2859745,64.6884979 C71.440281,65.0608977 70.5945876,65.4233224 69.7624252,65.8189971 C69.1061671,66.1315469 68.46344,66.4673716 67.8173302,66.7932214 C67.01223,67.1988711 66.2003643,67.5978708 65.4087952,68.0234705 C65.2937809,68.0866454 65.172001,68.1398454 65.053604,68.2030204 C64.7491543,68.3725952 64.4514702,68.5654451 64.1436378,68.73502 C62.8818631,69.4399194 61.6336196,70.1714189 60.4022899,70.9328434 C59.8745772,71.2553681 59.35363,71.5845429 58.8360656,71.9203676 C57.6453292,72.6817921 56.4715066,73.4797915 55.314598,74.2977409 C55.0067655,74.5138657 54.6887848,74.7033906 54.3843352,74.9228404 C54.2828519,74.9993154 54.1847515,75.0857653 54.0765027,75.1622403 C52.232891,76.5055393 50.4264897,77.9253132 48.6505334,79.4082621 C48.2648972,79.7307869 47.8826438,80.0599617 47.5037731,80.3858114 C45.6939891,81.9385853 43.9112672,83.5412341 42.1691387,85.2403079 C42.1657559,85.2436329 42.1623731,85.2469579 42.1623731,85.2469579 L42,96 C43.7455113,94.2909513 45.5349987,92.6883024 47.3447827,91.1322036 C47.7236534,90.8063538 48.1059068,90.477179 48.4847775,90.1613043 C50.2641166,88.6750304 52.0739006,87.2552564 53.9175124,85.9119574 C54.326828,85.6160326 54.7429092,85.3367328 55.1522248,85.047458 C56.3125163,84.2295086 57.4863388,83.4348342 58.6736924,82.6700848 C59.1912568,82.33426 59.712204,82.0050852 60.2399167,81.6825605 C61.4746292,80.917811 62.7296383,80.1863116 63.991413,79.4814121 C64.4108769,79.2486623 64.8235753,79.0026124 65.2464221,78.7731876 C66.0413739,78.3475879 66.8566224,77.9452632 67.6617226,77.5396135 C68.3078324,77.2170888 68.9505595,76.877939 69.600052,76.5687142 C70.4322144,76.1730395 71.2812907,75.8106148 72.1236014,75.4382151 C72.7460317,75.1655653 73.3616966,74.8796155 73.984127,74.6202657 C76.4535519,73.5961664 78.9771012,72.6884421 81.537861,71.8671677 C81.8795212,71.7574427 82.2211814,71.6344178 82.5662243,71.5280179 C84.9443143,70.7931935 87.3663804,70.1514689 89.825657,69.5862193 C90.2721832,69.4831444 90.7153266,69.3833945 91.1652355,69.2836446 C93.6583398,68.74832 96.1852719,68.2894703 98.7527973,67.9237206 C99.5477492,67.8106706 100.342701,67.7109207 101.137653,67.6178208 C101.864949,67.5280458 102.588863,67.4349459 103.322925,67.361796 C104.243039,67.268696 105.180068,67.1988711 106.113713,67.1290461 C106.837627,67.0725212 107.558158,67.0093462 108.288837,66.9661213 C109.844913,66.8763463 111.407754,66.8031964 112.98751,66.7732714 C114.976581,66.7333714 116.93859,66.7533214 118.89045,66.8065214 C119.65834,66.8264714 120.419464,66.8696963 121.180588,66.9062713 C122.137913,66.9494963 123.095238,66.9927212 124.039032,67.0625462" id="Fill-3" fill="url(#linearGradient-2)"></path>
                    <path d="M128.857346,11.3941035 C130.102753,11.4851175 131.338033,11.6098403 132.576689,11.7311923 C134.007725,11.8660278 135.438761,12.0042342 136.859671,12.1727786 C137.976824,12.3076141 139.087227,12.4761585 140.19763,12.6345903 C141.895297,12.8739233 143.58959,13.1334817 145.267007,13.4233781 C146.377409,13.6188896 147.484437,13.8278846 148.584715,14.0436214 C150.228381,14.3638558 151.858546,14.7110572 153.485337,15.0852258 C154.744244,15.3751222 156.00315,15.6616476 157.251931,15.9785111 C157.957324,16.160539 158.666092,16.342567 159.368109,16.5347076 C161.096152,17.003261 162.810695,17.5021524 164.511738,18.028011 C165.01125,18.1830718 165.510763,18.3212782 166.0069,18.4797099 C168.163579,19.1741129 170.306758,19.9123373 172.426311,20.6977542 C172.939323,20.8865239 173.438836,21.0921481 173.945099,21.2876596 C175.511138,21.8876776 177.067052,22.5146628 178.61284,23.1652442 C179.58824,23.5764925 180.556889,24.0079661 181.522163,24.4394398 C182.78107,24.9990072 184.026476,25.5720581 185.265132,26.1687053 C186.227031,26.6305169 187.18218,27.1024413 188.133953,27.5844782 C189.362484,28.2047216 190.577514,28.8451903 191.78917,29.5025135 C192.730818,30.0081467 193.669092,30.5238925 194.600615,31.0531219 C195.81227,31.740783 197.010425,32.4554113 198.20858,33.1767813 C199.113103,33.726236 200.021001,34.2723199 200.918773,34.8419999 C202.133803,35.6071915 203.331958,36.4060919 204.533488,37.215105 C205.39076,37.788156 206.251406,38.3544652 207.098552,38.9477414 C208.340584,39.8174305 209.565739,40.7275703 210.790895,41.63771 C211.577289,42.2208736 212.370434,42.7871828 213.150079,43.3838299 C214.486612,44.4153217 215.80627,45.4940058 217.122553,46.5726899 C217.770569,47.1019193 218.421961,47.6075525 219.063227,48.1435237 C221.01065,49.788517 222.937823,51.4773319 224.837996,53.2268227 L225,42.328742 C223.099827,40.5792512 221.172654,38.8904363 219.225231,37.2488139 C218.577214,36.7027301 217.915698,36.1903551 217.260932,35.6577548 C215.951399,34.5824416 214.641866,33.5138701 213.308708,32.4891202 C212.525688,31.8857312 211.729168,31.3160512 210.936023,30.7295167 C209.717618,29.8227478 208.499212,28.9193499 207.260557,28.0530317 C206.410035,27.4563845 205.542639,26.8867044 204.681992,26.3069117 C203.487212,25.5080113 202.292432,24.7091108 201.080777,23.9439193 C200.183005,23.3742392 199.271732,22.8281554 198.363834,22.2787006 C197.169054,21.5539597 195.970899,20.8427024 194.759244,20.1550412 C193.827721,19.6258118 192.892822,19.1134369 191.947799,18.6044328 C190.739518,17.9471096 189.524488,17.3066409 188.295957,16.6863976 C187.340809,16.2043606 186.38566,15.7290654 185.423761,15.2672537 C184.185105,14.6739775 182.936323,14.1009265 181.684167,13.5413591 C180.718893,13.1098855 179.750244,12.6784118 178.774844,12.2671635 C178.319208,12.0750229 177.873697,11.8626569 177.41806,11.6738872 C176.321158,11.2255591 175.210755,10.8109399 174.107103,10.3895789 C173.60084,10.1940674 173.094577,9.98844325 172.588315,9.79967353 C170.465387,9.01088575 168.322208,8.2726613 166.162154,7.58162927 C165.672767,7.42319754 165.180005,7.28499114 164.687242,7.13330118 C162.979449,6.60744266 161.261532,6.10518036 159.526738,5.63662694 C158.824721,5.44448633 158.119328,5.26245838 157.41056,5.08043043 C156.78617,4.9219987 156.171904,4.74334164 155.544139,4.59165168 C154.919748,4.43996173 154.271732,4.33209331 153.643966,4.18714513 C152.020551,3.81297657 150.38701,3.46577511 148.743344,3.14216987 C147.639691,2.92643305 146.539413,2.71743799 145.429011,2.52529738 C143.748219,2.23203013 142.050551,1.97584265 140.349509,1.73313872 C139.627241,1.63201208 138.921848,1.49043479 138.19958,1.39942082 C137.80807,1.3488575 137.413185,1.32526128 137.025051,1.27806885 C135.600765,1.10278268 134.159604,0.96794716 132.721818,0.829740755 C131.489912,0.715130566 130.261382,0.587036825 129.022726,0.496022851 C127.554564,0.388154437 126.072902,0.320736678 124.587865,0.246577144 C123.646216,0.202755601 122.718068,0.121854291 121.766294,0.0915162993 C121.503038,0.0814036355 121.226281,0.0915162993 120.959649,0.0881454113 C117.928823,0.000502325235 114.870997,-0.0298356661 111.776044,0.0342112045 C109.58899,0.0780327476 107.415435,0.158934058 105.262132,0.280286023 C104.978624,0.293769575 104.705243,0.324107566 104.421736,0.340962006 C103.307958,0.408379764 102.20768,0.509506402 101.100653,0.5937786 C99.6156154,0.70838879 98.1305783,0.822998979 96.6590415,0.974688936 C95.5351384,1.09267001 94.4247356,1.23424731 93.3109578,1.37245371 C92.3389335,1.49043479 91.3500338,1.58144876 90.3847596,1.71628428 C89.9122478,1.78370204 89.4532363,1.87134512 88.9874747,1.94213377 C87.9850746,2.09045284 86.9894247,2.25899724 85.9937748,2.42417074 C84.5357384,2.66687468 83.0844521,2.92306216 81.6466662,3.20621674 C80.6476412,3.39835736 79.6519913,3.60398152 78.6597165,3.81634746 C78.0319508,3.95118298 77.3974349,4.05905139 76.7764194,4.20062868 C75.9697742,4.38265663 75.1800045,4.60176435 74.3767344,4.79727585 C73.4283357,5.02649622 72.4833121,5.25908749 71.5450386,5.50516231 C70.0735018,5.88944353 68.6188405,6.30743364 67.1709293,6.7355364 C66.3069077,6.988353 65.4361359,7.23105693 64.5788645,7.50072796 C64.3122328,7.58500016 64.0354759,7.65578881 63.7654691,7.74006101 C62.560564,8.12434223 61.3792845,8.56255766 60.1845046,8.97380599 C59.3339833,9.27044412 58.4767119,9.54348605 57.6329408,9.85360774 C55.918398,10.4839638 54.2207305,11.1648831 52.5298132,11.8559152 C51.9762994,12.0851355 51.4092852,12.2873888 50.8591465,12.5199801 C50.8085202,12.5402054 50.7545189,12.5604307 50.7072677,12.5806561 C49.9006225,12.9211158 49.1243531,13.3087679 48.3278332,13.6627111 C46.8259206,14.3301469 45.320633,14.9840992 43.8423461,15.7020983 C42.9006975,16.1571682 41.9826746,16.6594305 41.0477762,17.1347257 C39.6943674,17.8257577 38.3375834,18.5033062 37.00105,19.2347888 C36.8862972,19.2988357 36.7681692,19.3527699 36.6534163,19.4168168 C36.2484062,19.6392954 35.8602715,19.8988538 35.4586365,20.1280741 C33.3357084,21.3247394 31.2364059,22.5719679 29.1641041,23.8765015 C28.3507088,24.3855056 27.5440636,24.914735 26.7374184,25.4405935 C24.8946224,26.6473714 23.0754519,27.9013417 21.2731568,29.1923918 C20.7837696,29.5429641 20.2842571,29.8497149 19.798245,30.2036582 C19.4708618,30.4463621 19.1468537,30.7092913 18.8160954,30.9553662 C18.1410785,31.4609993 17.4728118,31.9767452 16.8045451,32.4958619 C15.5490137,33.4599359 14.3036076,34.4476061 13.0649516,35.4555015 C12.3865597,36.0116981 11.7115428,36.5678946 11.039901,37.1342037 C9.7641191,38.2128879 8.49846246,39.3185391 7.24293107,40.4444157 C6.66579164,40.9601615 6.08527713,41.4624238 5.51488787,41.9882823 C3.70921773,43.6467592 1.92379809,45.3423158 0.158628966,47.1019193 L0,58 C1.76179404,56.2437674 3.54721368,54.5482108 5.34950874,52.8897339 C5.92664817,52.3605045 6.51053776,51.8548713 7.09105228,51.3357546 C8.34658366,50.2132489 9.60549014,49.1075976 10.881272,48.0322844 C11.5495387,47.4659752 12.2245556,46.9131496 12.8995725,46.360324 C14.1416035,45.3456867 15.3971349,44.3546457 16.6560414,43.3838299 C17.320933,42.871455 17.9790745,42.35908 18.6473412,41.8601886 C19.4641116,41.2500579 20.2977574,40.6770069 21.121278,40.0837307 C22.920198,38.7960515 24.7359934,37.5488229 26.5720393,36.345416 C27.3820596,35.8161866 28.1920798,35.2835863 29.0088502,34.7712113 C31.081152,33.4666777 33.1770794,32.22282 35.2966324,31.0261548 C35.8163954,30.7362584 36.3226581,30.419395 36.839046,30.1362404 C38.1688292,29.4047577 39.518863,28.733951 40.8688967,28.0462899 C41.8071702,27.5642529 42.7353184,27.0586197 43.6870922,26.5968081 C45.1687542,25.8788089 46.6774169,25.2214858 48.1860797,24.5506791 C49.0231006,24.1798814 49.8499962,23.7753749 50.6971424,23.4180608 C51.2607815,23.1820986 51.8379209,22.9731035 52.4049351,22.7405123 C54.0857271,22.056222 55.7698942,21.3786736 57.4776869,20.7516884 C58.321458,20.4415667 59.1787295,20.1685248 60.0326258,19.8718867 C61.4872872,19.3662535 62.9419485,18.8606203 64.4168604,18.3988086 C65.2775069,18.1325085 66.1482787,17.8864337 67.0190505,17.6336171 C68.4635866,17.2055143 69.9148729,16.7875242 71.3830346,16.403243 C72.3246831,16.1571682 73.2697067,15.9245769 74.2214805,15.6953565 C75.6356409,15.3515259 77.0633016,15.0211789 78.4977124,14.7144281 C79.4899872,14.5020622 80.4856371,14.296438 81.4846621,14.1042974 C82.9258231,13.8245137 84.3737343,13.5683262 85.8317708,13.3222514 C86.8274207,13.1570779 87.8230706,12.9885335 88.8254706,12.8402144 C90.2565064,12.6278485 91.7010425,12.4458206 93.1523288,12.2705344 C94.2661067,12.132328 95.3765094,11.9907507 96.5004125,11.8761405 C97.9719493,11.7244505 99.4569864,11.6064695 100.942024,11.4918593 C102.049051,11.4042162 103.149329,11.3064604 104.263107,11.2424136 C106.696542,11.0974654 109.143479,10.9828552 111.620791,10.9322919 C114.712368,10.868245 117.766819,10.898583 120.79427,10.9828552 C122.022801,11.019935 123.231081,11.0907236 124.446111,11.1480287 C125.921023,11.2188173 127.395935,11.2862351 128.857346,11.3941035" id="Fill-11" fill="url(#linearGradient-3)"></path>
                    <path d="M114.596243,124.004072 C124.52833,123.79751 132.773836,131.474753 132.995307,141.141883 C133.220184,150.80557 125.335844,158.789215 115.403757,158.995778 C105.47167,159.205783 97.2295708,151.556081 97.0046934,141.888951 C96.7798159,132.225264 104.664156,124.210635 114.596243,124.004072 Z M42,95.0579508 C61.2624449,76.2281998 84.7957183,66.5870766 112.569554,66.0255861 C140.377019,65.4640955 164.165869,74.144079 184,92.0688393 L164.492066,111.935696 C150.166296,98.9685674 133.005636,92.6996905 112.969734,93.1059454 C92.940558,93.5122004 76.0960072,100.468078 62.4293563,114 L42,95.0579508 Z M111.69784,11.040604 C155.578531,10.1414626 193.339163,24.1754481 225,53.1358503 L205.011859,73.2356845 C178.73816,49.6936152 147.820376,38.2832436 112.113274,39.0112797 C76.4061726,39.7426708 46.0524341,52.4078142 21.092589,77 L0,57.8865372 C30.6002972,27.5069679 67.8171488,11.9397453 111.69784,11.040604 Z" id="Combined-Shape" fill="url(#linearGradient-4)"></path>
                </g>
            </g>
        </g>
    </g>
</svg>