<?xml version="1.0" encoding="UTF-8"?>
<svg width="333px" height="83px" viewBox="0 0 333 83" version="1.1" xmlns="http://www.w3.org/2000/svg" xmlns:xlink="http://www.w3.org/1999/xlink">
    <!-- Generator: Sketch 51 (57462) - http://www.bohemiancoding.com/sketch -->
    <title>漏洞盒子</title>
    <desc>Created with Sketch.</desc>
    <defs>
        <linearGradient x1="50%" y1="0%" x2="50%" y2="122.903668%" id="linearGradient-1">
            <stop stop-color="#1266DF" offset="0%"></stop>
            <stop stop-color="#2869EA" offset="100%"></stop>
        </linearGradient>
        <linearGradient x1="80.6142857%" y1="8.18842815%" x2="80.6142857%" y2="114.811148%" id="linearGradient-2">
            <stop stop-color="#7496FF" offset="0%"></stop>
            <stop stop-color="#66D3FF" offset="100%"></stop>
        </linearGradient>
        <linearGradient x1="50%" y1="-75.9560562%" x2="50%" y2="170.796829%" id="linearGradient-3">
            <stop stop-color="#3C81F6" offset="0%"></stop>
            <stop stop-color="#66C8FF" offset="100%"></stop>
        </linearGradient>
        <linearGradient x1="50%" y1="-151.025391%" x2="50%" y2="170.796829%" id="linearGradient-4">
            <stop stop-color="#3C81F6" offset="0%"></stop>
            <stop stop-color="#66AEFF" offset="100%"></stop>
        </linearGradient>
        <linearGradient x1="-209.423828%" y1="50%" x2="100%" y2="50%" id="linearGradient-5">
            <stop stop-color="#2161FF" offset="0%"></stop>
            <stop stop-color="#5CAEFF" offset="100%"></stop>
        </linearGradient>
    </defs>
    <g id="Page-1" stroke="none" stroke-width="1" fill="none" fill-rule="evenodd">
        <g id="漏洞盒子">
            <g id="Group-19" transform="translate(3.000000, 3.000000)" fill="url(#linearGradient-1)" fill-rule="nonzero" stroke="url(#linearGradient-2)">
                <path d="M121.278491,27.5349031 L121.278491,16.4334656 L147.289392,16.4334656 L147.289392,27.5349031 L121.278491,27.5349031 Z M86.2725356,75.9780094 L93.7300848,41.6935562 L106.24251,41.6935562 L100.480421,75.9780094 L86.2725356,75.9780094 Z M146.63147,54.0579328 C146.63147,60.7132676 142.998341,64.1143547 135.928627,64.1143547 L121.936173,64.1143547 L121.936173,30.7238234 L146.63147,30.7238234 L146.63147,54.0579328 Z M136.745433,41.0456359 L132.15021,41.0456359 L132.15021,54.8753547 L133.624217,54.8753547 C135.772267,54.8753547 136.745433,53.9905384 136.745433,52.0799953 L136.745433,41.0456359 Z M148.592841,13.6930703 L120.303522,13.6930703 L120.303522,77.2962734 L106.46827,77.2962734 L106.46827,3.46510156 L162.426892,3.46510156 L162.426892,65.2619141 C162.426892,72.7979569 158.244868,76.6369609 150.080445,76.6369609 L141.682013,76.6369609 L141.682013,67.0695078 L142.182013,67.0695078 L145.846514,67.0715996 C147.957963,67.2653463 148.778478,66.5253901 148.592841,64.6026016 L148.592841,13.6930703 Z M98.0828337,18.9658859 L93.5821096,18.9658859 L89.3832194,2.14840156 L101.213208,2.14840156 L101.343055,2.45151966 C102.480378,5.10651312 103.437181,7.98240674 104.213434,11.0759163 C105.219435,15.0780434 102.201356,18.9658859 98.0828337,18.9658859 Z M90.3699945,21.9206781 L102.209188,21.9206781 L102.334684,22.2355669 C103.50752,25.1783863 104.461757,28.0498967 105.196496,30.8515639 C106.242419,34.8362575 103.197309,38.7393656 99.0671941,38.7393656 L94.5688658,38.7393656 L90.3699945,21.9206781 Z M242.068176,63.888325 L247.992601,63.888325 L247.992601,74.9897625 L171.300293,74.9897625 L171.300293,63.888325 L177.553919,63.888325 L177.553919,47.6256844 L242.068176,47.6256844 L242.068176,63.888325 Z M237.79132,33.9479661 C238.011853,41.919577 234.161757,45.8893561 226.431276,45.6596203 L181.502295,45.6596203 L181.502295,25.2159172 L237.79132,25.2159172 L237.79132,33.9479661 Z M227.917559,20.1219475 L227.917559,24.2385812 L191.703815,24.2385812 L191.703815,20.1113621 C186.30641,21.5830889 179.693271,22.8473982 171.86746,23.9044255 L171.300533,23.981 L171.300533,15.139359 L171.642223,15.0253052 C171.703631,15.0048075 171.823537,14.9643673 171.998037,14.9048678 C172.289453,14.805503 172.627662,14.6888438 173.00876,14.555774 C174.098202,14.1753681 175.312395,13.7399099 176.620087,13.2564781 C180.355844,11.8754318 184.091344,10.3872291 187.575972,8.84889945 C191.811349,6.97914288 195.378787,5.16422774 198.058088,3.45702423 C199.61344,2.46598153 200.846033,1.52504808 201.723659,0.646209488 L201.870147,0.49951875 L217.423227,0.49951875 L217.569715,0.646209488 C224.079407,7.16489464 234.089042,11.9597363 247.602992,15.0118653 L247.992841,15.0999129 L247.992841,23.9709645 L247.434624,23.9055242 C240.217847,23.0594944 233.713369,21.7985801 227.917559,20.1219475 Z M223.956067,33.7956047 L195.337547,33.7956047 L195.337547,37.0799328 L221.165254,37.0799328 C223.070936,37.0799328 223.956067,36.1065195 223.956067,33.9549172 L223.956067,33.7956047 Z M202.744611,15.98855 L216.546782,15.98855 C214.249128,14.8909729 211.950388,13.6084643 209.646483,12.1397711 C207.339579,13.6082276 205.040158,14.8907981 202.744611,15.98855 Z M300.333952,32.5814484 L328.966069,32.5814484 L328.966069,39.3677766 C328.966069,43.4434328 325.666416,46.7472453 321.594889,46.7472453 L300.333952,46.7472453 L300.333952,58.6875578 C300.333952,68.8447438 294.883944,76.3080266 286.012296,76.3080266 L272.347842,76.3080266 L272.347842,62.8003391 L280.961336,62.8003391 C283.15179,62.8003391 283.538289,62.0815647 283.538289,58.6875578 L283.538289,46.7472453 L251.286157,46.7472453 L251.286157,32.5814484 L283.538289,32.5814484 L283.538289,25.7533921 L298.915613,17.0890109 L256.88138,17.0890109 L256.88138,3.79547969 L324.029248,3.79547969 L324.029248,16.5544535 L300.333952,29.6360317 L300.333952,32.5814484 Z M2.66303483,21.9206781 L14.5022281,21.9206781 L14.6277243,22.2355669 C15.8005598,25.1783863 16.7547969,28.0498967 17.4895367,30.8515639 C18.5354596,34.8362575 15.4903496,38.7393656 11.3602344,38.7393656 L6.86190606,38.7393656 L2.66303483,21.9206781 Z M10.375874,18.9658859 L5.87514988,18.9658859 L1.67625967,2.14840156 L13.5062481,2.14840156 L13.6360952,2.45151966 C14.773418,5.10651312 15.7302216,7.98240674 16.5064739,11.0759163 C17.5124755,15.0780434 14.4943959,18.9658859 10.375874,18.9658859 Z M33.4218491,24.5685984 L33.4218491,26.8639578 L80.1540396,26.8639578 L80.1540396,35.4436453 L60.7371604,35.4436453 L60.7371604,38.3983172 L78.8372337,38.3983172 L78.8372337,38.8983172 L78.8368756,68.5388351 C79.0641298,74.5403129 76.0854704,77.5227606 70.1096,77.2967547 L62.3695707,77.2967547 L62.3695707,69.0467234 L65.501981,69.0467234 C66.7945905,69.0467234 67.3063912,68.7536331 67.3063912,68.2280984 L67.3063912,46.6483484 L60.7371604,46.6483484 L60.7371604,49.9735828 L66.8069626,49.9735828 L66.8069626,54.5449578 C66.8069626,56.5594614 65.1763439,58.1923328 63.1639297,58.1923328 L60.7371604,58.1923328 L60.7371604,59.5985828 L66.8069626,59.5985828 L66.8069626,64.1699578 C66.8069626,66.1844614 65.1763439,67.8173328 63.1639297,67.8173328 L60.7371604,67.8173328 L60.7371604,76.3077859 L49.2063179,76.3077859 L49.2063179,46.6483484 L42.6370872,46.6483484 L42.6370872,49.9735828 L48.7849846,49.9735828 L48.7849846,54.5449578 C48.7849846,56.5594614 47.1543659,58.1923328 45.1419516,58.1923328 L42.6370872,58.1923328 L42.6370872,59.5985828 L48.7849846,59.5985828 L48.7849846,64.1699578 C48.7849846,66.1844614 47.1543659,67.8173328 45.1419516,67.8173328 L42.6370872,67.8173328 L42.6370872,76.9670984 L31.1062447,76.9670984 L31.1062447,57.655526 C28.8329034,65.4322026 24.3889092,72.1606407 17.77987,77.8342451 L16.9541861,78.5430628 L16.9541861,65.5920516 L16.9692749,65.4701453 C16.9945239,65.3697113 17.0423468,65.1740678 17.1095189,64.8905725 C17.2217599,64.4168669 17.346906,63.8700048 17.4817328,63.2573477 C17.8671806,61.5058615 18.2527079,59.5793568 18.6125264,57.536806 C19.3395503,53.409772 19.8670793,49.3500495 20.1099404,45.5543315 C20.2301419,43.6756802 20.2777046,41.8942179 20.2462007,40.2157391 L20.2462007,2.47781719 L77.8508308,2.47781719 L77.8508308,2.97781719 L77.850646,12.5206486 C78.0733117,20.7096226 74.3411424,24.7988014 66.8187868,24.5685984 L33.4218491,24.5685984 Z M7.50397872,42.6822844 L19.0225235,42.6822844 L13.9361433,76.9667375 L0.385521582,76.9667375 L7.50397872,42.6822844 Z M49.2063179,35.4436453 L33.4218491,35.4436453 L33.4218491,38.3983172 L49.2063179,38.3983172 L49.2063179,35.4436453 Z M33.4218491,11.7156141 L33.4218491,15.6592547 L62.5415707,15.6592547 C64.2389125,15.6592547 65.001981,14.8946668 65.001981,13.1935516 L65.001981,11.7156141 L33.4218491,11.7156141 Z" id="Combined-Shape"></path>
            </g>
            <g id="Group-19-Copy-2" fill="#FFFFFF" fill-rule="nonzero">
                <path d="M120.778491,26.0349031 L120.778491,15.9334656 L145.789392,15.9334656 L145.789392,26.0349031 L120.778491,26.0349031 Z M85.8929875,74.4780094 L93.1330168,41.1935562 L104.651464,41.1935562 L99.0574418,74.4780094 L85.8929875,74.4780094 Z M145.13147,53.0579328 C145.13147,59.4320891 141.726517,62.6143547 134.928627,62.6143547 L121.436173,62.6143547 L121.436173,30.2238234 L145.13147,30.2238234 L145.13147,53.0579328 Z M136.245433,51.0799953 L136.245433,39.5456359 L130.65021,39.5456359 L130.65021,54.3753547 L132.624217,54.3753547 C135.036759,54.3753547 136.245433,53.2793078 136.245433,51.0799953 Z M105.96827,75.7962734 L105.96827,2.96510156 L160.926892,2.96510156 L160.926892,64.2619141 C160.926892,71.5119453 156.977676,75.1369609 149.080445,75.1369609 L141.182013,75.1369609 L141.182013,66.5695078 L144.800826,66.5695078 C147.213368,66.7908828 148.307903,65.8019141 148.092841,63.6026016 L148.092841,12.1930703 L118.803522,12.1930703 L118.803522,75.7962734 L105.96827,75.7962734 Z M97.0828337,17.4658859 L92.9726212,17.4658859 L89.0234051,1.64840156 L99.8834491,1.64840156 C101.011625,4.28204219 101.959581,7.13344844 102.728519,10.1978078 C103.654848,13.8829797 100.877061,17.4658859 97.0828337,17.4658859 Z M90.0101685,21.4206781 L100.870212,21.4206781 C102.032029,24.33585 102.981187,27.1884594 103.712879,29.9785063 C104.677656,33.6540531 101.861421,37.2393656 98.0671941,37.2393656 L93.9593846,37.2393656 L90.0101685,21.4206781 Z" id="Combined-Shape"></path>
                <path d="M223.126505,63.388325 L227.404923,63.388325 L227.404923,55.6931375 L223.126505,55.6931375 L223.126505,63.388325 Z M206.34444,63.388325 L211.280059,63.388325 L211.280059,55.6931375 L206.34444,55.6931375 L206.34444,63.388325 Z M190.217172,63.388325 L194.49559,63.388325 L194.49559,55.6931375 L190.217172,55.6931375 L190.217172,63.388325 Z M240.568176,47.1256844 L240.568176,63.388325 L246.492601,63.388325 L246.492601,73.4897625 L170.800293,73.4897625 L170.800293,63.388325 L177.053919,63.388325 L177.053919,47.1256844 L240.568176,47.1256844 Z M236.29132,32.9549172 C236.506382,40.6476984 232.887569,44.3809953 225.431276,44.1596203 L181.002295,44.1596203 L181.002295,24.7159172 L236.29132,24.7159172 L236.29132,32.9549172 Z M201.077456,-0.00048125 L216.215918,-0.00048125 C222.797544,6.5902375 232.887449,11.4268 246.492841,14.4995812 L246.492841,22.408925 C239.031742,21.5342531 232.341984,20.2156281 226.417559,18.4542531 L226.417559,22.7385812 L191.203815,22.7385812 L191.203815,18.4542531 C185.717925,19.9942531 178.915229,21.3128781 170.800533,22.408925 L170.800533,14.4995812 C170.800533,14.4995812 194.49583,6.5902375 201.077456,-0.00048125 Z M223.456067,32.9549172 L223.456067,32.2956047 L193.837547,32.2956047 L193.837547,36.5799328 L220.165254,36.5799328 C222.355525,36.5799328 223.456067,35.3756047 223.456067,32.9549172 Z M199.432651,15.48855 L217.861925,15.48855 C214.786174,14.1711281 211.717632,12.5228469 208.646687,10.5461125 C205.570936,12.5228469 202.502394,14.1711281 199.432651,15.48855 Z" id="Combined-Shape"></path>
                <path d="M298.833952,32.0814484 L298.833952,28.3409328 L322.529248,15.2593547 L322.529248,3.29547969 L256.38138,3.29547969 L256.38138,15.5890109 L299.821556,15.5890109 L283.038289,25.0455734 L283.038289,32.0814484 L250.786157,32.0814484 L250.786157,45.2472453 L283.038289,45.2472453 L283.038289,57.6875578 C283.038289,60.7663547 282.81001,62.3003391 279.961336,62.3003391 L271.847842,62.3003391 L271.847842,74.8080266 L285.012296,74.8080266 C294.227534,74.8080266 298.833952,66.6929484 298.833952,57.6875578 L298.833952,45.2472453 L320.594889,45.2472453 C324.390318,45.2472453 327.466069,42.1672453 327.466069,38.3677766 L327.466069,32.0814484 L298.833952,32.0814484 Z" id="Fill-11"></path>
                <path d="M2.30320879,21.4206781 L13.1632527,21.4206781 C14.3250696,24.33585 15.2742271,27.1884594 16.0059194,29.9785063 C16.970696,33.6540531 14.1544615,37.2393656 10.3602344,37.2393656 L6.25242491,37.2393656 L2.30320879,21.4206781 Z M9.37587399,17.4658859 L5.26566154,17.4658859 L1.31644542,1.64840156 L12.1764894,1.64840156 C13.3046652,4.28204219 14.2526212,7.13344844 15.021559,10.1978078 C15.9478886,13.8829797 13.1701011,17.4658859 9.37587399,17.4658859 Z M31.9218491,23.0685984 L31.9218491,26.3639578 L78.6540396,26.3639578 L78.6540396,33.9436453 L59.2371604,33.9436453 L59.2371604,37.8983172 L77.3372337,37.8983172 L77.3372337,67.5577547 C77.5534974,73.2689891 74.8129553,76.0121141 69.1096,75.7967547 L61.8695707,75.7967547 L61.8695707,68.5467234 L64.501981,68.5467234 C66.0350505,68.5467234 66.8063912,68.1039734 66.8063912,67.2280984 L66.8063912,45.1483484 L59.2371604,45.1483484 L59.2371604,49.4735828 L65.3069626,49.4735828 L65.3069626,53.5449578 C65.3069626,55.2834734 63.9000469,56.6923328 62.1639297,56.6923328 L59.2371604,56.6923328 L59.2371604,59.0985828 L65.3069626,59.0985828 L65.3069626,63.1699578 C65.3069626,64.9084734 63.9000469,66.3173328 62.1639297,66.3173328 L59.2371604,66.3173328 L59.2371604,74.8077859 L48.7063179,74.8077859 L48.7063179,45.1483484 L41.1370872,45.1483484 L41.1370872,49.4735828 L47.2849846,49.4735828 L47.2849846,53.5449578 C47.2849846,55.2834734 45.8780689,56.6923328 44.1419516,56.6923328 L41.1370872,56.6923328 L41.1370872,57.8954578 L41.1370872,58.0013328 L41.1370872,59.0985828 L47.2849846,59.0985828 L47.2849846,63.1699578 C47.2849846,64.9084734 45.8780689,66.3173328 44.1419516,66.3173328 L41.1370872,66.3173328 L41.1370872,75.4670984 L30.6062447,75.4670984 L30.6062447,52.3983797 C28.8472996,61.8465203 24.1315487,69.8641453 16.4541861,76.4548641 L16.4541861,64.5920516 C16.4541861,64.5920516 19.961263,50.6418172 19.7462007,39.2157391 L19.7462007,1.97781719 L76.3508308,1.97781719 L76.3508308,11.5342391 C76.565893,19.4435828 73.0600176,23.2899734 65.8187868,23.0685984 L31.9218491,23.0685984 Z M6.91082784,42.1822844 L17.4428718,42.1822844 L12.5048498,75.4667375 L-3.71258579e-13,75.4667375 L6.91082784,42.1822844 Z M48.7063179,33.9436453 L31.9218491,33.9436453 L31.9218491,36.9093484 L31.9218491,37.8983172 L48.7063179,37.8983172 L48.7063179,33.9436453 Z M31.9218491,10.2156141 L31.9218491,15.1592547 L61.5415707,15.1592547 C63.515578,15.1592547 64.501981,14.1702859 64.501981,12.1935516 L64.501981,10.2156141 L31.9218491,10.2156141 Z" id="Combined-Shape"></path>
            </g>
            <polyline id="Path-23" stroke="url(#linearGradient-3)" points="32 6 25 6 25 14"></polyline>
            <polyline id="Path-23-Copy" stroke="url(#linearGradient-3)" transform="translate(150.500000, 10.000000) scale(-1, 1) translate(-150.500000, -10.000000) " points="154 6 147 6 147 14"></polyline>
            <polyline id="Path-23-Copy-3" stroke="url(#linearGradient-3)" transform="translate(314.500000, 10.000000) scale(-1, 1) translate(-314.500000, -10.000000) " points="318 7 311 7 311 13"></polyline>
            <polyline id="Path-23-Copy-2" stroke="url(#linearGradient-4)" transform="translate(187.500000, 39.000000) scale(-1, 1) rotate(-180.000000) translate(-187.500000, -39.000000) " points="191 36 184 36 184 42"></polyline>
            <circle id="Oval-14" fill="url(#linearGradient-5)" fill-rule="nonzero" cx="155" cy="67" r="1"></circle>
            <circle id="Oval-14-Copy-2" fill="url(#linearGradient-5)" fill-rule="nonzero" cx="72" cy="69" r="1"></circle>
            <circle id="Oval-14-Copy" fill="url(#linearGradient-5)" fill-rule="nonzero" cx="155" cy="63" r="1"></circle>
            <circle id="Oval-14-Copy-3" fill="url(#linearGradient-5)" fill-rule="nonzero" cx="72" cy="65" r="1"></circle>
        </g>
    </g>
</svg>